HIERARCHY
ROOT Hips
{
	OFFSET 0.000000 0.000000 0.000000 
	CHANNELS 6 Xposition Yposition Zposition Zrotation Yrotation Xrotation
	JOINT LeftUpLeg
	{
		OFFSET 1.363060 -1.794630 0.839290 
		CHANNELS 3 Zrotation Yrotation Xrotation
		JOINT LeftLeg
		{
			OFFSET 2.448110 -6.726130 0.000000 
			CHANNELS 3 Zrotation Yrotation Xrotation
			JOINT LeftFoot
			{
				OFFSET 2.562200 -7.039590 0.000000 
				CHANNELS 3 Zrotation Yrotation Xrotation
				JOINT LeftToeBase
				{
					OFFSET 0.157640 -0.433110 2.322550 
					CHANNELS 3 Zrotation Yrotation Xrotation
					End Site
					{
						OFFSET 0.000000 0.000000 0.000000 
					}
				}
			}
		}
	}
	JOINT RightUpLeg
	{
		OFFSET -1.305520 -1.794630 0.839290 
		CHANNELS 3 Zrotation Yrotation Xrotation
		JOINT RightLeg
		{
			OFFSET -2.542530 -6.985550 0.000000 
			CHANNELS 3 Zrotation Yrotation Xrotation
			JOINT RightFoot
			{
				OFFSET -2.568260 -7.056230 0.000000 
				CHANNELS 3 Zrotation Yrotation Xrotation
				JOINT RightToeBase
				{
					OFFSET -0.164730 -0.452590 2.363150 
					CHANNELS 3 Zrotation Yrotation Xrotation
					End Site
					{
						OFFSET 0.000000 0.000000 0.000000 
					}
				}
			}
		}
	}
	JOINT Spine
	{
		OFFSET 0.028270 2.035590 -0.193380 
		CHANNELS 3 Zrotation Yrotation Xrotation
		JOINT Spine1
		{
			OFFSET 0.056720 2.048850 -0.042750 
			CHANNELS 3 Zrotation Yrotation Xrotation
			JOINT Neck1
			{
				OFFSET -0.054170 1.746240 0.172020 
				CHANNELS 3 Zrotation Yrotation Xrotation
				JOINT Head
				{
					OFFSET 0.104070 1.761360 -0.123970 
					CHANNELS 3 Zrotation Yrotation Xrotation
					End Site
					{
						OFFSET 0.000000 0.000000 0.000000 
					}
				}
			}
			JOINT LeftArm
			{
				OFFSET 3.362410 1.200890 -0.311210 
				CHANNELS 3 Zrotation Yrotation Xrotation
				JOINT LeftForeArm
				{
					OFFSET 4.983000 -0.000000 -0.000000 
					CHANNELS 3 Zrotation Yrotation Xrotation
					JOINT LeftHand
					{
						OFFSET 3.483560 -0.000000 -0.000000 
						CHANNELS 3 Zrotation Yrotation Xrotation
						JOINT LeftHandIndex1
						{
							OFFSET 0.715260 -0.000000 -0.000000 
							CHANNELS 3 Zrotation Yrotation Xrotation
							End Site
							{
								OFFSET 0.000000 0.000000 0.000000 
							}
						}
					}
				}
			}
			JOINT RightArm
			{
				OFFSET -3.136600 1.374050 -0.404650 
				CHANNELS 3 Zrotation Yrotation Xrotation
				JOINT RightForeArm
				{
					OFFSET -5.241900 -0.000000 -0.000000 
					CHANNELS 3 Zrotation Yrotation Xrotation
					JOINT RightHand
					{
						OFFSET -3.444170 -0.000000 -0.000000 
						CHANNELS 3 Zrotation Yrotation Xrotation
						JOINT RightHandIndex1
						{
							OFFSET -0.622530 -0.000000 -0.000000 
							CHANNELS 3 Zrotation Yrotation Xrotation
							End Site
							{
								OFFSET 0.000000 0.000000 0.000000 
							}
						}
					}
				}
			}
		}
	}
}
MOTION
Frames: 9
Frame Time: 0.041667
0.576618 16.581662 10.011897 -3.323635 -5.867204 98.465573 -30.491562 22.153459 -62.602928 5.436862 13.960126 33.473350 -10.787891 32.274581 27.430829 1.047900 6.509700 18.270700 -17.896476 22.004451 -53.321574 1.790025 -16.604038 27.020994 -7.433437 4.734134 43.564191 -0.047400 1.405600 -3.865600 -4.889265 12.480530 -1.488902 -17.550260 6.056303 3.400708 2.106726 -11.520496 17.886306 -0.200900 -3.844800 19.969100 62.545980 -20.383350 -88.624253 8.506703 -25.280832 -2.595756 -5.512302 -2.069765 -37.938863 -7.125000 0.000000 0.000000 -35.134276 8.489268 -42.170863 -14.558385 21.153203 -8.297889 3.454092 10.061196 -41.806031 7.125000 0.000000 0.000000 
0.611421 16.588831 10.003110 -3.141625 -6.085871 98.539397 -31.094341 22.429958 -62.990375 5.600549 14.081195 34.047461 -10.834569 32.191826 27.123123 1.032600 6.463400 18.135000 -17.910186 22.126823 -53.034076 1.722737 -16.759627 27.383717 -7.489406 5.012708 44.085568 -0.040400 1.297300 -3.567200 -4.804009 12.491067 -1.592403 -17.458420 6.029043 3.460184 1.965990 -11.452185 17.788033 -0.332800 -3.848900 19.862400 62.215002 -20.207277 -88.244300 8.539197 -25.230607 -2.603416 -5.556753 -2.083908 -38.129621 -7.125000 0.000000 0.000000 -35.276596 8.518945 -42.348201 -14.561611 21.216828 -8.274365 3.446501 10.049512 -41.778010 7.125000 0.000000 0.000000 
0.647380 16.594959 9.991547 -3.022559 -6.220705 98.768405 -31.653655 22.657821 -63.486862 5.804124 14.229990 34.633670 -10.818517 32.169787 27.070178 0.939300 6.173000 17.287300 -17.892307 22.253959 -52.980879 1.646066 -16.940010 27.780664 -7.513413 5.220655 44.481251 -0.036200 1.228200 -3.377000 -4.707020 12.554288 -1.719657 -17.372294 5.993528 3.548672 1.878949 -11.284369 17.612191 -0.362300 -3.854700 19.636100 61.784422 -19.993840 -87.650843 8.619445 -25.181918 -2.627207 -5.603841 -2.129041 -38.257095 -7.125000 0.000000 0.000000 -35.477130 8.512265 -42.568793 -14.549956 21.292727 -8.239849 3.421340 10.089724 -41.744047 7.125000 0.000000 0.000000 
0.686345 16.604787 9.982644 -2.879733 -6.405752 98.914407 -32.081826 22.802567 -63.767136 5.955584 14.360187 35.241311 -10.730947 31.862762 26.905481 0.851100 5.883900 16.448100 -17.786433 22.282419 -52.835150 1.554890 -17.103887 28.200499 -7.521322 5.467733 44.759044 -0.033500 1.180700 -3.246100 -4.653607 12.603038 -1.800293 -17.252252 5.975750 3.585235 1.834551 -11.120324 17.409730 -0.319200 -3.881200 19.392100 61.454380 -19.668807 -87.317320 8.599834 -25.038797 -2.602946 -5.657948 -2.125405 -38.283538 -7.125000 0.000000 0.000000 -35.602890 8.496207 -42.517402 -14.581770 21.348568 -8.204957 3.570377 10.028258 -41.309735 7.125000 0.000000 0.000000 
0.724848 16.613575 9.971775 -2.761022 -6.586245 99.076606 -32.509827 22.951101 -64.074081 6.132745 14.500946 35.854492 -10.670037 31.665351 26.782320 0.799500 5.707000 15.936600 -17.688615 22.329175 -52.719140 1.460268 -17.274175 28.617239 -7.525590 5.664363 45.077904 -0.029800 1.113600 -3.061400 -4.598397 12.656324 -1.882562 -17.138210 5.959631 3.633415 1.763682 -10.986347 17.222957 -0.325300 -3.902800 19.168300 61.110950 -19.390398 -87.006966 8.581011 -24.905125 -2.584125 -5.717893 -2.117358 -38.318716 -7.125000 0.000000 0.000000 -35.746351 8.485804 -42.623634 -14.580988 21.397393 -8.162735 3.654455 9.989169 -40.887273 7.125000 0.000000 0.000000 
0.764507 16.624096 9.961832 -2.652756 -6.769489 99.211249 -32.862278 23.076422 -64.291734 6.308224 14.638118 36.455095 -10.596495 31.459529 26.691148 0.770000 5.603200 15.637300 -17.540163 22.344879 -52.592045 1.355680 -17.446721 29.052464 -7.516653 5.840481 45.352037 -0.026400 1.048400 -2.881900 -4.559800 12.701842 -1.945702 -17.023324 5.949197 3.669844 1.687567 -10.849135 17.021664 -0.339200 -3.922500 18.926200 60.764385 -19.087083 -86.705053 8.550336 -24.754051 -2.559048 -5.785056 -2.105938 -38.323371 -7.125000 0.000000 0.000000 -35.885494 8.465643 -42.769653 -14.560976 21.427550 -8.105977 3.760546 9.930654 -40.257924 7.125000 0.000000 0.000000 
0.805438 16.636121 9.952929 -2.564043 -6.963939 99.325251 -33.162417 23.184155 -64.445988 6.485146 14.774741 37.054271 -10.517628 31.252743 26.615765 0.762400 5.576000 15.559100 -17.352414 22.332792 -52.456506 1.244330 -17.616234 29.493026 -7.498317 5.993148 45.598873 -0.023100 0.980300 -2.694700 -4.537438 12.743585 -1.990248 -16.906185 5.945072 3.699475 1.588996 -10.735528 16.821250 -0.392200 -3.941500 18.689700 60.416351 -18.768735 -86.423342 8.503194 -24.585923 -2.526763 -5.861085 -2.091959 -38.296053 -7.125000 0.000000 0.000000 -36.020075 8.431191 -42.905158 -14.533201 21.442503 -8.038304 3.892322 9.853050 -39.413583 7.125000 0.000000 0.000000 
0.847641 16.649996 9.944835 -2.499634 -7.178625 99.418169 -33.423114 23.281779 -64.542424 6.667134 14.911794 37.643781 -10.441125 31.079991 26.574039 0.781000 5.642000 15.749100 -17.134822 22.297480 -52.312052 1.125800 -17.783454 29.940708 -7.472581 6.128113 45.824168 -0.019900 0.910200 -2.501800 -4.534119 12.776636 -2.012145 -16.779939 5.946488 3.719150 1.475302 -10.648713 16.621575 -0.478400 -3.960900 18.460500 60.061746 -18.443833 -86.165484 8.436089 -24.399817 -2.487009 -5.945735 -2.080586 -38.218585 -7.125000 0.000000 0.000000 -36.152547 8.377244 -43.031904 -14.490543 21.435157 -7.952367 4.052251 9.747864 -38.313485 7.125000 0.000000 0.000000 
0.890884 16.664912 9.937204 -2.455559 -7.401990 99.502093 -33.641403 23.363744 -64.593149 6.854210 15.049562 38.225334 -10.376427 30.947342 26.543075 0.811100 5.747400 16.053400 -16.885593 22.237723 -52.173130 1.000673 -17.948405 30.394586 -7.440283 6.242409 46.037597 -0.016700 0.835400 -2.296100 -4.547967 12.803711 -2.013449 -16.653472 5.951580 3.736839 1.320434 -10.612869 16.436422 -0.638700 -3.982000 18.258000 59.680936 -18.101597 -85.818406 8.380191 -24.215661 -2.448910 -6.036079 -2.082943 -38.179796 -7.125000 0.000000 0.000000 -36.283789 8.299174 -43.130864 -14.426437 21.397833 -7.839967 4.248117 9.602398 -36.926337 7.125000 0.000000 0.000000 
